<?xml version="1.0" encoding="UTF-8"?>
<svg xmlns="http://www.w3.org/2000/svg" version="1.1" viewBox="0 0 1920 792.51">
  <defs>
    <style>
      .cls-1 {
        fill: #fcfdfc;
      }
    </style>
  </defs>
  <!-- Generator: Adobe Illustrator 28.7.3, SVG Export Plug-In . SVG Version: 1.2.0 Build 164)  -->
  <g>
    <g id="Calque_1">
      <g>
        <path class="cls-1" d="M97.71,630.38c30.45,12.33,59.72,20.28,90.38,23.04,20.59,1.85,40.75,1.91,61.1-1.89,48.33-9.04,75.06-49.15,64.62-101.1-37.79,35.31-82.29,45.93-131.17,37.07-80.66-14.61-140.83-79.14-151.81-165.27-9.56-75.01-2.12-150.64-4.15-225.97-.24-8.94,2.79-12.54,12.09-12.43,31.51.37,63.04.74,94.52-.15,14.91-.43,14.02,8.34,14.01,18.11-.08,54.2-.14,108.4.01,162.59.03,12.55.35,25.15,1.47,37.64,4.44,49.55,31.59,75.74,78.51,76.27,48.71.55,82.98-27.07,87.59-74.04,6.37-64.98,2.42-130.29,2.02-195.43-.13-21.4,6.21-26.72,26.48-25.36,26.66,1.78,53.55.9,80.32.22,11.42-.29,14.71,3.68,14.66,14.82-.5,128.03,2.3,256.15-1.63,384.06-3.3,107.26-85.54,183.08-195.49,188.09-42.57,1.94-84.94-.89-126.43-11.94-11.56-3.08-18.31-7.12-17.61-21.94,1.62-34.42.52-68.97.52-106.39Z"/>
        <path class="cls-1" d="M1012.71,184.14c.08-45.55,1.23-91.14-.26-136.64-.67-20.34,6.19-25.58,25.36-24.21,22.73,1.62,45.75,1.66,68.47,0,20.65-1.52,27.98,3.69,27.58,26.27-1.52,84.8.05,169.64-1.13,254.45-.27,19.68,6.49,23.24,24.14,22.42,51.22-2.37,87.62-41.09,85.32-92.63q-2.22-49.81,47.77-49.82c20.48,0,40.99.64,61.43-.24,12.62-.55,15.99,4.3,16.15,16.26.87,65.38-10.6,126.65-57.56,176.24-8.4,8.87-6.21,15.93-1.37,25,29.76,55.84,58.73,112.11,88.95,167.7,8.55,15.73,3.84,18.42-11.5,18.1-27.55-.57-55.13-.02-82.7.06-33.29,6.64-51.75-6.71-66.18-38.05-26.87-58.35-59.01-114.3-89.02-171.21-3.47-6.58-7.37-12.93-14.72-18.33,0,67.18-1.06,134.38.6,201.52.56,22.47-6.8,28-27.61,26.61-24.31-1.63-48.85-1.35-73.2-.08-17.13.89-21.01-5.87-20.94-21.77.58-127.21.39-254.43.44-381.65Z"/>
        <path class="cls-1" d="M725.21,589.58c-83.16-2.6-153.5-30.58-191.84-109.03-53.75-109.96-12.69-277.08,158.94-296.92,78.24-9.05,148.45,7.55,199.68,69.86,53.98,65.65,62.27,141.75,29.11,218.9-32.58,75.81-96.3,110.7-177,117.14-6.25.5-12.58.07-18.88.07ZM817,386.12c.12-59.63-32.31-93.18-90.47-93.6-58.6-.43-94.63,35.26-94.3,93.41.32,57.52,35.25,92.18,92.94,92.23,58.82.05,91.71-32.91,91.82-92.04Z"/>
        <path class="cls-1" d="M854.8,85.9c-.45,29.85-22.15,51.54-50.63,50.6-27.61-.91-50.11-24.79-49.55-52.59.58-28.74,22.73-48.75,52.9-47.78,30,.97,47.74,19.64,47.28,49.76Z"/>
        <path class="cls-1" d="M645.15,37.67c30.6.17,49.01,18.02,48.85,47.33-.15,26.78-22.71,50.84-48.21,51.42-28.87.66-52.17-22.58-52.03-51.88.15-31.02,17.74-47.07,51.4-46.88Z"/>
        <path class="cls-1" d="M1758.95,533.02c-4.52-1.29-6.74,1.27-8.38,3.75-47.96,72.7-161.33,60.26-217.87,23.56-123.32-80.04-124.07-273.92-.26-348.22,78.19-46.92,191.26-41.78,262.48,14.58,49.35,39.05,69.52,93.66,71.68,155.09,1.76,50.18,1.31,100.47,14.43,149.51,2.03,7.57,4.19,15.12,6.67,22.55q11.06,33.19-25.15,33.17c-14.95,0-29.91,0-44.86,0q-41.16,0-53.23-39.84c-1.5-4.91-.61-11.15-5.51-14.16ZM1653.94,478.24c58.15,1.2,89.49-28.44,91.15-86.21,1.79-62.19-29.91-98.5-86.91-99.55-60.83-1.12-98.27,32.22-97.41,92.2.72,50.45,18.82,91.99,93.17,93.56Z"/>
      </g>
    </g>
  </g>
</svg>